<?xml version="1.0" standalone="no"?>
<!DOCTYPE svg PUBLIC "-//W3C//DTD SVG 20010904//EN"
 "http://www.w3.org/TR/2001/REC-SVG-20010904/DTD/svg10.dtd">
<svg version="1.0" xmlns="http://www.w3.org/2000/svg"
 width="890.000000pt" height="890.000000pt" viewBox="0 0 890.000000 890.000000"
 preserveAspectRatio="xMidYMid meet">
<metadata>
Created by potrace 1.16, written by Peter Selinger 2001-2019
</metadata>
<g transform="translate(0.000000,890.000000) scale(0.100000,-0.100000)"
fill="#000000" stroke="none">
<path d="M2190 8264 c-25 -2 -106 -11 -180 -20 -425 -49 -715 -168 -781 -319
-25 -58 -39 -188 -49 -445 -11 -308 -39 -463 -134 -770 -33 -103 -43 -203 -27
-253 15 -45 107 -131 157 -147 55 -18 168 -8 242 22 134 55 305 178 546 396
446 402 706 598 959 721 198 97 363 140 556 145 145 4 248 -6 443 -45 179 -35
324 -46 385 -30 51 14 83 52 83 97 0 48 -43 158 -86 221 -140 203 -540 333
-1254 409 -137 15 -752 27 -860 18z"/>
<path d="M5455 7094 c-84 -10 -133 -26 -164 -54 -59 -54 -76 -128 -86 -370 -9
-245 -29 -359 -90 -535 -13 -38 -21 -73 -18 -78 7 -12 58 39 99 100 42 64 124
228 165 331 83 209 191 389 313 519 42 44 76 84 76 87 0 6 -241 6 -295 0z"/>
<path d="M3360 6595 c0 -3 105 -57 233 -119 127 -63 266 -136 307 -162 286
-182 464 -374 447 -481 -16 -93 -118 -228 -219 -286 -58 -34 -125 -44 -152
-24 -18 13 -17 15 16 53 66 72 83 118 83 219 0 78 -4 98 -28 150 -33 70 -79
121 -160 177 -141 96 -331 168 -564 214 -121 24 -163 28 -338 28 -280 1 -363
-9 -558 -70 -101 -32 -266 -109 -342 -160 -273 -181 -423 -493 -539 -1125 -14
-74 -34 -189 -46 -255 -71 -407 -188 -689 -335 -809 -52 -43 -83 -44 -104 -1
-33 70 -77 433 -66 551 24 269 92 444 338 872 120 208 213 387 248 474 20 52
59 190 59 210 0 6 -39 -43 -86 -108 -96 -132 -93 -128 -331 -413 -192 -231
-307 -389 -358 -494 -28 -57 -36 -91 -45 -171 -21 -205 -30 -473 -30 -930 0
-515 -12 -831 -35 -970 -22 -132 -19 -249 6 -305 29 -64 198 -227 272 -263
154 -74 269 -53 469 86 154 107 320 179 541 237 257 66 428 81 642 56 229 -27
260 -13 518 234 86 84 157 149 157 145 0 -3 -61 -123 -135 -266 -74 -143 -135
-263 -135 -265 0 -3 30 -76 66 -162 165 -393 210 -524 238 -692 23 -146 25
-170 31 -400 11 -361 37 -452 182 -618 31 -35 74 -73 97 -84 55 -29 139 -28
366 5 158 23 353 47 755 93 599 67 883 201 1182 558 92 110 234 310 363 511
184 287 373 548 510 706 91 105 100 128 43 102 -175 -80 -367 -284 -836 -888
-246 -319 -476 -524 -724 -649 -126 -63 -273 -93 -324 -65 -19 10 -16 14 36
71 31 33 135 165 230 292 234 312 327 417 695 791 393 399 512 544 573 695 59
149 82 311 73 508 -14 306 -120 622 -301 892 -154 231 -338 334 -540 301 -111
-19 -194 -65 -329 -186 -117 -104 -157 -128 -178 -107 -16 16 4 96 55 222 114
280 271 394 542 394 126 0 164 -13 270 -89 152 -108 276 -296 366 -551 80
-228 144 -251 89 -31 -81 320 -184 523 -344 674 -315 298 -748 243 -1116 -143
-194 -203 -212 -345 -100 -759 106 -391 164 -681 131 -660 -11 6 -69 181 -101
300 -191 720 -561 1163 -1105 1320 -187 54 -235 59 -595 60 -361 1 -414 7
-335 41 64 27 272 61 540 88 329 34 555 64 618 83 138 40 256 142 323 278 72
145 68 275 -11 434 -148 294 -517 526 -992 621 -98 19 -173 26 -173 15z m-569
-538 c70 -48 121 -115 145 -190 22 -71 30 -268 15 -363 -14 -82 -46 -186 -79
-250 -89 -175 -304 -297 -547 -311 -113 -6 -218 8 -274 37 -78 40 -147 139
-193 280 -28 86 -31 108 -32 225 -1 117 1 135 22 176 28 57 65 94 86 86 20 -8
20 -30 1 -140 -28 -156 14 -288 125 -390 129 -120 303 -131 457 -30 65 43 167
152 212 227 134 223 129 406 -15 582 -85 105 -40 141 77 61z m-372 -92 c60
-51 65 -138 10 -200 -43 -48 -97 -62 -156 -40 -46 18 -83 62 -83 100 0 33 46
120 75 143 40 32 114 30 154 -3z m1041 -1501 c134 -9 353 -35 428 -50 186 -38
295 -96 412 -220 115 -122 162 -216 179 -361 14 -125 69 -247 206 -453 119
-179 205 -394 231 -579 14 -104 20 -352 9 -371 -20 -32 -39 18 -70 180 -43
216 -144 450 -267 615 -77 104 -126 153 -181 182 -25 14 -51 16 -122 13 -203
-8 -257 2 -263 48 -5 32 12 49 82 84 100 49 124 85 96 138 -22 42 -128 53
-196 19 -52 -25 -83 -65 -128 -163 -66 -145 -126 -203 -182 -177 -14 6 -32 28
-40 48 -21 49 -7 97 47 159 51 59 65 92 46 111 -19 19 -50 6 -128 -57 -106
-86 -148 -96 -202 -46 -20 19 -27 35 -27 62 0 35 9 47 128 163 134 131 164
175 166 244 2 94 -119 100 -180 9 -12 -18 -30 -57 -40 -88 -20 -65 -56 -99
-86 -83 -46 25 -60 129 -36 267 20 117 2 139 -129 166 -232 49 -629 64 -827
33 -60 -10 -111 -16 -113 -13 -20 20 79 69 180 90 79 16 243 34 377 40 90 4
525 -3 630 -10z m2547 -955 c88 -33 191 -105 224 -158 52 -81 29 -96 -46 -31
-66 57 -116 80 -173 80 -35 0 -57 -6 -77 -22 -27 -21 -28 -23 -22 -98 7 -89
-5 -145 -35 -161 -32 -17 -95 -4 -134 28 -99 80 -116 93 -124 93 -20 0 -52
-48 -81 -124 -43 -110 -46 -224 -7 -306 32 -69 85 -122 157 -158 55 -26 59
-27 218 -25 108 2 164 -1 169 -8 11 -18 -56 -78 -122 -109 -95 -45 -178 -63
-289 -64 -89 -1 -107 2 -157 26 -184 86 -285 353 -209 550 35 90 116 205 210
298 191 190 341 247 498 189z"/>
<path d="M6193 6550 c-105 -22 -201 -106 -270 -236 -23 -43 -65 -146 -93 -228
-79 -230 -166 -393 -280 -525 -106 -123 -135 -181 -92 -181 34 0 136 59 208
119 136 116 266 285 361 469 68 132 98 176 158 231 70 64 144 95 230 95 84 0
119 -11 251 -75 115 -57 156 -70 174 -59 50 31 -171 239 -350 330 -106 54
-217 76 -297 60z"/>
<path d="M7388 5729 c-53 -30 -61 -219 -53 -1174 9 -1204 0 -1334 -141 -1840
-151 -547 -192 -730 -201 -906 -6 -125 3 -175 40 -209 28 -27 69 -25 95 3 37
39 98 186 157 377 166 538 281 654 835 845 246 85 408 159 505 233 182 138
279 426 231 687 -50 270 -122 407 -487 925 -91 129 -203 291 -249 360 -306
455 -484 642 -659 694 -30 9 -55 16 -55 16 -1 0 -9 -5 -18 -11z"/>
<path d="M2306 2580 c-326 -41 -633 -175 -800 -350 -117 -122 -126 -218 -30
-296 117 -92 269 -181 574 -331 228 -113 461 -246 645 -367 175 -115 235 -149
319 -181 130 -49 197 -27 212 71 8 56 -9 347 -32 539 -64 535 -243 820 -564
898 -82 20 -234 28 -324 17z"/>
</g>
</svg>
